<svg width="17" height="19" viewBox="0 0 17 19" fill="none" xmlns="http://www.w3.org/2000/svg">
<path d="M14.5733 10.385L8.90832 16.0592C8.16565 16.7192 7.19887 17.0705 6.20573 17.0413C5.21259 17.012 4.26815 16.6045 3.56559 15.9019C2.86303 15.1993 2.45545 14.2549 2.42622 13.2618C2.39698 12.2686 2.7483 11.3018 3.40832 10.5592L10.7417 3.22583C11.1795 2.80994 11.7603 2.57805 12.3642 2.57805C12.968 2.57805 13.5488 2.80994 13.9867 3.22583C14.4132 3.65813 14.6524 4.24101 14.6524 4.84833C14.6524 5.45565 14.4132 6.03854 13.9867 6.47083L7.66165 12.7867C7.59905 12.8541 7.52379 12.9085 7.44016 12.9468C7.35653 12.9852 7.26617 13.0066 7.17424 13.01C7.08231 13.0134 6.99061 12.9987 6.90438 12.9667C6.81814 12.9346 6.73906 12.8859 6.67165 12.8233C6.60424 12.7607 6.54982 12.6855 6.51149 12.6018C6.47317 12.5182 6.45169 12.4279 6.44828 12.3359C6.44488 12.244 6.45961 12.1523 6.49165 12.0661C6.52368 11.9798 6.57239 11.9007 6.63498 11.8333L11.3375 7.14C11.5101 6.96739 11.6071 6.73328 11.6071 6.48917C11.6071 6.24506 11.5101 6.01095 11.3375 5.83833C11.1649 5.66572 10.9308 5.56875 10.6867 5.56875C10.4425 5.56875 10.2084 5.66572 10.0358 5.83833L5.33332 10.55C5.09801 10.7835 4.91125 11.0612 4.7838 11.3672C4.65636 11.6732 4.59074 12.0014 4.59074 12.3329C4.59074 12.6644 4.65636 12.9926 4.7838 13.2986C4.91125 13.6046 5.09801 13.8824 5.33332 14.1158C5.81399 14.5737 6.45239 14.8291 7.11623 14.8291C7.78008 14.8291 8.41848 14.5737 8.89915 14.1158L15.215 7.79083C15.9436 7.00887 16.3403 5.97462 16.3214 4.90596C16.3026 3.8373 15.8697 2.81769 15.1139 2.06191C14.3581 1.30614 13.3385 0.873227 12.2699 0.854372C11.2012 0.835517 10.1669 1.23219 9.38498 1.96083L2.05165 9.29417C1.06275 10.3894 0.534593 11.824 0.577223 13.2991C0.619852 14.7741 1.22998 16.1758 2.28049 17.2121C3.33099 18.2484 4.74085 18.8395 6.21633 18.8621C7.6918 18.8846 9.11909 18.337 10.2008 17.3333L15.875 11.6683C15.9605 11.5829 16.0282 11.4814 16.0745 11.3697C16.1208 11.2581 16.1446 11.1384 16.1446 11.0175C16.1446 10.8966 16.1208 10.7769 16.0745 10.6653C16.0282 10.5536 15.9605 10.4521 15.875 10.3667C15.7895 10.2812 15.6881 10.2134 15.5764 10.1671C15.4647 10.1209 15.345 10.0971 15.2242 10.0971C15.1033 10.0971 14.9836 10.1209 14.8719 10.1671C14.7603 10.2134 14.6588 10.2812 14.5733 10.3667V10.385Z" fill="black"/>
</svg>
