<svg width="20" height="20" viewBox="0 0 20 20" fill="none" xmlns="http://www.w3.org/2000/svg">
<g clip-path="url(#clip0_1_1874)">
<path d="M17.7778 7.34442V16.6666H2.22222V4.44442H3.88888V3.33331H2.08333C1.95346 3.33548 1.82529 3.36322 1.70614 3.41493C1.58699 3.46664 1.4792 3.54132 1.38892 3.6347C1.29863 3.72807 1.22763 3.83832 1.17996 3.95915C1.1323 4.07997 1.1089 4.209 1.1111 4.33887V16.7722C1.1089 16.9021 1.1323 17.0311 1.17996 17.1519C1.22763 17.2727 1.29863 17.383 1.38892 17.4764C1.4792 17.5698 1.58699 17.6444 1.70614 17.6961C1.82529 17.7479 1.95346 17.7756 2.08333 17.7778H17.9167C18.0465 17.7756 18.1747 17.7479 18.2938 17.6961C18.413 17.6444 18.5208 17.5698 18.6111 17.4764C18.7014 17.383 18.7724 17.2727 18.82 17.1519C18.8677 17.0311 18.8911 16.9021 18.8889 16.7722V6.85554C18.5446 7.07222 18.1702 7.23696 17.7778 7.34442Z" fill="white"/>
<path d="M4.44446 7.77777H5.55557V8.88888H4.44446V7.77777Z" fill="white"/>
<path d="M7.77783 7.77777H8.88894V8.88888H7.77783V7.77777Z" fill="white"/>
<path d="M11.1111 7.77777H12.2222V8.88888H11.1111V7.77777Z" fill="white"/>
<path d="M14.4445 7.77777H15.5556V8.88888H14.4445V7.77777Z" fill="white"/>
<path d="M4.44446 10.5555H5.55557V11.6667H4.44446V10.5555Z" fill="white"/>
<path d="M7.77783 10.5555H8.88894V11.6667H7.77783V10.5555Z" fill="white"/>
<path d="M11.1111 10.5555H12.2222V11.6667H11.1111V10.5555Z" fill="white"/>
<path d="M14.4445 10.5555H15.5556V11.6667H14.4445V10.5555Z" fill="white"/>
<path d="M4.44446 13.3333H5.55557V14.4444H4.44446V13.3333Z" fill="white"/>
<path d="M7.77783 13.3333H8.88894V14.4444H7.77783V13.3333Z" fill="white"/>
<path d="M11.1111 13.3333H12.2222V14.4444H11.1111V13.3333Z" fill="white"/>
<path d="M14.4445 13.3333H15.5556V14.4444H14.4445V13.3333Z" fill="white"/>
<path d="M5.55556 5.55553C5.7029 5.55553 5.84421 5.497 5.94839 5.39281C6.05258 5.28862 6.11111 5.14732 6.11111 4.99997V1.66664C6.11111 1.5193 6.05258 1.37799 5.94839 1.2738C5.84421 1.16962 5.7029 1.11108 5.55556 1.11108C5.40821 1.11108 5.26691 1.16962 5.16272 1.2738C5.05853 1.37799 5 1.5193 5 1.66664V4.99997C5 5.14732 5.05853 5.28862 5.16272 5.39281C5.26691 5.497 5.40821 5.55553 5.55556 5.55553Z" fill="white"/>
<path d="M12.4999 3.33331H7.22217V4.44442H12.6555C12.5537 4.08277 12.5014 3.70901 12.4999 3.33331Z" fill="white"/>
<path d="M16.6667 6.1111C18.2008 6.1111 19.4445 4.86744 19.4445 3.33332C19.4445 1.7992 18.2008 0.555542 16.6667 0.555542C15.1326 0.555542 13.8889 1.7992 13.8889 3.33332C13.8889 4.86744 15.1326 6.1111 16.6667 6.1111Z" fill="white"/>
</g>
<defs>
<clipPath id="clip0_1_1874">
<rect width="20" height="20" fill="white"/>
</clipPath>
</defs>
</svg>
