<svg width="87" height="87" viewBox="0 0 87 87" fill="none" xmlns="http://www.w3.org/2000/svg">
<g clip-path="url(#clip0_1_1646)">
<g clip-path="url(#clip1_1_1646)">
<path d="M50.0772 74.1213C70.5306 69.4472 77.6128 53.3784 73.7414 36.4377C69.8701 19.4969 56.5111 8.09939 36.0578 12.7735C15.6044 17.4476 8.52221 33.5164 12.3936 50.4571C16.2649 67.3979 29.6239 78.7954 50.0772 74.1213Z" fill="url(#paint0_radial_1_1646)"/>
<path d="M50.0772 74.1213C70.5306 69.4472 77.6128 53.3784 73.7414 36.4377C69.8701 19.4969 56.5111 8.09939 36.0578 12.7735C15.6044 17.4476 8.52221 33.5164 12.3936 50.4571C16.2649 67.3979 29.6239 78.7954 50.0772 74.1213Z" fill="url(#paint1_radial_1_1646)"/>
<path d="M50.0772 74.1213C70.5306 69.4472 77.6128 53.3784 73.7414 36.4377C69.8701 19.4969 56.5111 8.09939 36.0578 12.7735C15.6044 17.4476 8.52221 33.5164 12.3936 50.4571C16.2649 67.3979 29.6239 78.7954 50.0772 74.1213Z" fill="url(#paint2_radial_1_1646)"/>
<path d="M50.0772 74.1213C70.5306 69.4472 77.6128 53.3784 73.7414 36.4377C69.8701 19.4969 56.5111 8.09939 36.0578 12.7735C15.6044 17.4476 8.52221 33.5164 12.3936 50.4571C16.2649 67.3979 29.6239 78.7954 50.0772 74.1213Z" fill="url(#paint3_radial_1_1646)" fill-opacity="0.6"/>
<path d="M50.0772 74.1213C70.5306 69.4472 77.6128 53.3784 73.7414 36.4377C69.8701 19.4969 56.5111 8.09939 36.0578 12.7735C15.6044 17.4476 8.52221 33.5164 12.3936 50.4571C16.2649 67.3979 29.6239 78.7954 50.0772 74.1213Z" fill="url(#paint4_radial_1_1646)"/>
<path d="M50.0772 74.1213C70.5306 69.4472 77.6128 53.3784 73.7414 36.4377C69.8701 19.4969 56.5111 8.09939 36.0578 12.7735C15.6044 17.4476 8.52221 33.5164 12.3936 50.4571C16.2649 67.3979 29.6239 78.7954 50.0772 74.1213Z" fill="url(#paint5_radial_1_1646)"/>
<path d="M50.0772 74.1213C70.5306 69.4472 77.6128 53.3784 73.7414 36.4377C69.8701 19.4969 56.5111 8.09939 36.0578 12.7735C15.6044 17.4476 8.52221 33.5164 12.3936 50.4571C16.2649 67.3979 29.6239 78.7954 50.0772 74.1213Z" fill="url(#paint6_radial_1_1646)"/>
<path d="M50.0772 74.1213C70.5306 69.4472 77.6128 53.3784 73.7414 36.4377C69.8701 19.4969 56.5111 8.09939 36.0578 12.7735C15.6044 17.4476 8.52221 33.5164 12.3936 50.4571C16.2649 67.3979 29.6239 78.7954 50.0772 74.1213Z" fill="url(#paint7_radial_1_1646)"/>
</g>
<path fill-rule="evenodd" clip-rule="evenodd" d="M38.7729 75.0886L28.1088 28.4234L20.4397 30.176C18.6244 30.5908 17.4892 32.3986 17.904 34.2139L26.3711 71.2652C29.934 73.4046 34.0832 74.746 38.7729 75.0886ZM70.1935 61.2457C67.9142 64.7215 64.7598 67.7331 60.6843 70.0797L50.0205 23.416L57.6896 21.6634C59.5048 21.2486 61.3127 22.3838 61.7275 24.199L70.1935 61.2457Z" fill="url(#paint8_linear_1_1646)"/>
<path d="M17.6536 33.1185C17.6536 33.1185 17.9981 29.5814 22.3804 28.5799C26.7628 27.5785 28.6095 30.6149 28.6095 30.6149" stroke="url(#paint9_radial_1_1646)" stroke-width="4.49531" stroke-linecap="round" stroke-linejoin="round"/>
<path d="M50.5211 25.6073C50.5211 25.6073 50.8656 22.0702 55.2479 21.0687C59.6303 20.0672 61.477 23.1036 61.477 23.1036" stroke="url(#paint10_radial_1_1646)" stroke-width="4.49531" stroke-linecap="round" stroke-linejoin="round"/>
<rect x="31.8022" y="34.4966" width="17.9812" height="22.4766" rx="8.99062" transform="rotate(-12.8724 31.8022 34.4966)" fill="url(#paint11_radial_1_1646)"/>
</g>
<defs>
<radialGradient id="paint0_radial_1_1646" cx="0" cy="0" r="1" gradientUnits="userSpaceOnUse" gradientTransform="translate(60.3815 23.3541) rotate(119.967) scale(84.2946)">
<stop stop-color="#FFF478"/>
<stop offset="0.474827" stop-color="#FFB02E"/>
<stop offset="1" stop-color="#F70A8D"/>
</radialGradient>
<radialGradient id="paint1_radial_1_1646" cx="0" cy="0" r="1" gradientUnits="userSpaceOnUse" gradientTransform="translate(60.3815 23.3541) rotate(119.005) scale(87.5432)">
<stop stop-color="#FFF478"/>
<stop offset="0.474827" stop-color="#FFB02E"/>
<stop offset="1" stop-color="#F70A8D"/>
</radialGradient>
<radialGradient id="paint2_radial_1_1646" cx="0" cy="0" r="1" gradientUnits="userSpaceOnUse" gradientTransform="translate(41.3179 35.7802) rotate(88.4375) scale(40.1129 51.3771)">
<stop offset="0.787821" stop-color="#F59639" stop-opacity="0"/>
<stop offset="0.972509" stop-color="#FF7DCE"/>
</radialGradient>
<radialGradient id="paint3_radial_1_1646" cx="0" cy="0" r="1" gradientUnits="userSpaceOnUse" gradientTransform="translate(46.4514 38.0655) rotate(122.128) scale(92.1813)">
<stop offset="0.314853" stop-opacity="0"/>
<stop offset="1"/>
</radialGradient>
<radialGradient id="paint4_radial_1_1646" cx="0" cy="0" r="1" gradientUnits="userSpaceOnUse" gradientTransform="translate(43.5712 45.6405) rotate(64.8196) scale(63.2646)">
<stop offset="0.507903" stop-color="#7D6133" stop-opacity="0"/>
<stop offset="1" stop-color="#715B32"/>
</radialGradient>
<radialGradient id="paint5_radial_1_1646" cx="0" cy="0" r="1" gradientUnits="userSpaceOnUse" gradientTransform="translate(44.4165 44.2945) rotate(42.8407) scale(29.9242 21.6906)">
<stop stop-color="#FFB849"/>
<stop offset="1" stop-color="#FFB847" stop-opacity="0"/>
</radialGradient>
<radialGradient id="paint6_radial_1_1646" cx="0" cy="0" r="1" gradientUnits="userSpaceOnUse" gradientTransform="translate(53.9322 45.5783) rotate(-3.00662) scale(26.236)">
<stop stop-color="#FFA64B"/>
<stop offset="0.900412" stop-color="#FFAE46" stop-opacity="0"/>
</radialGradient>
<radialGradient id="paint7_radial_1_1646" cx="0" cy="0" r="1" gradientUnits="userSpaceOnUse" gradientTransform="translate(45.8565 40.507) rotate(31.0984) scale(132.731)">
<stop offset="0.185425" stop-opacity="0"/>
<stop offset="1" stop-opacity="0.4"/>
</radialGradient>
<linearGradient id="paint8_linear_1_1646" x1="55.4984" y1="22.1641" x2="66.5145" y2="70.3699" gradientUnits="userSpaceOnUse">
<stop stop-color="#6D9DFF"/>
<stop offset="1" stop-color="#4864FF"/>
</linearGradient>
<radialGradient id="paint9_radial_1_1646" cx="0" cy="0" r="1" gradientUnits="userSpaceOnUse" gradientTransform="translate(23.6323 34.0579) rotate(-102.872) scale(7.8668)">
<stop offset="0.404968" stop-color="#432552"/>
<stop offset="0.703424" stop-color="#503F44"/>
<stop offset="0.805624" stop-color="#503F44"/>
<stop offset="1" stop-color="#4C342C"/>
</radialGradient>
<radialGradient id="paint10_radial_1_1646" cx="0" cy="0" r="1" gradientUnits="userSpaceOnUse" gradientTransform="translate(56.4998 26.5466) rotate(-102.872) scale(7.8668)">
<stop offset="0.404968" stop-color="#432552"/>
<stop offset="0.703424" stop-color="#503F44"/>
<stop offset="0.805624" stop-color="#503F44"/>
<stop offset="1" stop-color="#4C342C"/>
</radialGradient>
<radialGradient id="paint11_radial_1_1646" cx="0" cy="0" r="1" gradientUnits="userSpaceOnUse" gradientTransform="translate(40.7928 61.9679) rotate(-90) scale(27.4714 21.9771)">
<stop stop-color="#F70A8D"/>
<stop offset="1" stop-color="#89029C"/>
</radialGradient>
<clipPath id="clip0_1_1646">
<rect width="71.925" height="71.925" fill="white" transform="translate(0 16.4023) rotate(-12.8724)"/>
</clipPath>
<clipPath id="clip1_1_1646">
<rect width="71.925" height="71.925" fill="white" transform="translate(0 16.4023) rotate(-12.8724)"/>
</clipPath>
</defs>
</svg>
