<svg width="11" height="11" viewBox="0 0 11 11" fill="none" xmlns="http://www.w3.org/2000/svg">
<g clip-path="url(#clip0_1_2343)">
<path d="M7.77104 3.28166C7.69995 2.62601 7.45334 2.00166 7.05718 1.4744C6.66103 0.947145 6.13001 0.536492 5.52005 0.285707C4.9101 0.0349215 4.24379 -0.0467114 3.59134 0.0494079C2.93888 0.145527 2.32443 0.41584 1.81271 0.83187C1.67811 0.939125 1.56902 1.07494 1.49332 1.22951C1.41762 1.38408 1.37721 1.55353 1.375 1.72562C1.375 1.7864 1.39914 1.84469 1.44212 1.88766C1.4851 1.93064 1.54339 1.95479 1.60417 1.95479C1.66495 1.95479 1.72323 1.93064 1.76621 1.88766C1.80919 1.84469 1.83333 1.7864 1.83333 1.72562C1.83415 1.62199 1.85777 1.51981 1.90253 1.42634C1.94728 1.33287 2.01207 1.2504 2.09229 1.18479C2.74437 0.660292 3.57557 0.411334 4.40861 0.491012C5.24165 0.570691 6.01059 0.972699 6.55142 1.61129C7.09225 2.24989 7.36217 3.07452 7.3036 3.90931C7.24503 4.7441 6.86262 5.52296 6.23792 6.07979C5.92251 6.36995 5.68675 6.73612 5.55315 7.14333C5.41955 7.55055 5.39257 7.98522 5.47479 8.40583C5.5167 8.65593 5.50627 8.91201 5.44415 9.15787C5.38204 9.40374 5.26959 9.63404 5.11392 9.83422C4.95825 10.0344 4.76274 10.2001 4.53976 10.3209C4.31677 10.4417 4.07116 10.5149 3.81844 10.5358C3.56572 10.5568 3.3114 10.5252 3.07154 10.4429C2.83169 10.3605 2.61152 10.2294 2.42495 10.0576C2.23838 9.88584 2.08948 9.67725 1.98764 9.44501C1.88581 9.21276 1.83327 8.96192 1.83333 8.70833C1.83333 8.64755 1.80919 8.58926 1.76621 8.54628C1.72323 8.50331 1.66495 8.47916 1.60417 8.47916C1.54339 8.47916 1.4851 8.50331 1.44212 8.54628C1.39914 8.58926 1.375 8.64755 1.375 8.70833C1.375 9.00927 1.43428 9.30727 1.54944 9.58531C1.66461 9.86335 1.83341 10.116 2.04621 10.3288C2.47598 10.7586 3.05888 11 3.66667 11C4.26539 10.9949 4.83879 10.7577 5.26621 10.3384C5.69363 9.91913 5.94174 9.35039 5.95833 8.75187C5.95833 8.30729 5.63063 7.22333 6.54042 6.42583C6.98096 6.03751 7.32245 5.54964 7.53649 5.00277C7.75053 4.45591 7.83094 3.86586 7.77104 3.28166Z" fill="#833AB4"/>
<path d="M2.52085 6.18751C2.46007 6.18751 2.40179 6.21165 2.35881 6.25463C2.31583 6.29761 2.29169 6.3559 2.29169 6.41668C2.29169 6.47746 2.31583 6.53575 2.35881 6.57872C2.40179 6.6217 2.46007 6.64584 2.52085 6.64584C2.74351 6.64521 2.95831 6.56356 3.12517 6.41614C3.29203 6.26872 3.39953 6.0656 3.42759 5.84473C3.45566 5.62385 3.40237 5.40031 3.27769 5.21585C3.153 5.03138 2.96544 4.8986 2.75002 4.8423V4.58334H3.63002C3.78109 4.58367 3.92993 4.6198 4.06434 4.68878C4.19874 4.75776 4.31487 4.85763 4.40321 4.98018C4.49155 5.10273 4.54957 5.24448 4.57252 5.3938C4.59547 5.54312 4.58269 5.69575 4.53523 5.83918C4.0769 7.18897 4.12502 6.95522 4.12502 8.13084C4.12502 8.28279 4.06466 8.42851 3.95722 8.53596C3.84977 8.6434 3.70405 8.70376 3.5521 8.70376C3.40016 8.70376 3.25443 8.6434 3.14699 8.53596C3.03955 8.42851 2.97919 8.28279 2.97919 8.13084V8.02084C2.97919 7.96006 2.95504 7.90178 2.91207 7.8588C2.86909 7.81582 2.8108 7.79168 2.75002 7.79168C2.68924 7.79168 2.63095 7.81582 2.58798 7.8588C2.545 7.90178 2.52085 7.96006 2.52085 8.02084V8.13543C2.52085 8.40893 2.6295 8.67123 2.8229 8.86463C3.0163 9.05803 3.2786 9.16668 3.5521 9.16668C3.82561 9.16668 4.08791 9.05803 4.28131 8.86463C4.4747 8.67123 4.58335 8.40893 4.58335 8.13543C4.58335 7.00105 4.53294 7.2898 4.96835 5.98355C5.03916 5.77139 5.05853 5.54545 5.02489 5.32433C4.99125 5.10322 4.90554 4.89326 4.77485 4.71176C4.64415 4.53026 4.4722 4.38241 4.27315 4.2804C4.07411 4.17839 3.85368 4.12513 3.63002 4.12501H2.75002V2.52084C2.75002 1.91814 3.54981 1.60418 4.12502 1.60418C4.61125 1.60418 5.07757 1.79733 5.42138 2.14115C5.7652 2.48496 5.95835 2.95128 5.95835 3.43751C5.95835 3.49829 5.9825 3.55658 6.02547 3.59956C6.06845 3.64253 6.12674 3.66668 6.18752 3.66668C6.2483 3.66668 6.30659 3.64253 6.34957 3.59956C6.39254 3.55658 6.41669 3.49829 6.41669 3.43751C6.41669 3.13656 6.35741 2.83857 6.24224 2.56053C6.12708 2.28249 5.95827 2.02986 5.74547 1.81706C5.53267 1.60426 5.28004 1.43545 5.002 1.32029C4.72397 1.20512 4.42597 1.14584 4.12502 1.14584C3.32294 1.14584 2.29169 1.60418 2.29169 2.52084V5.04168C2.29169 5.10246 2.31583 5.16075 2.35881 5.20372C2.40179 5.2467 2.46007 5.27084 2.52085 5.27084C2.64241 5.27084 2.75899 5.31913 2.84494 5.40509C2.9309 5.49104 2.97919 5.60762 2.97919 5.72918C2.97919 5.85073 2.9309 5.96731 2.84494 6.05327C2.75899 6.13922 2.64241 6.18751 2.52085 6.18751ZM9.46231 8.32105C9.48379 8.29975 9.50084 8.2744 9.51247 8.24648C9.52411 8.21855 9.5301 8.1886 9.5301 8.15834C9.5301 8.12809 9.52411 8.09814 9.51247 8.07021C9.50084 8.04229 9.48379 8.01694 9.46231 7.99564C9.23315 7.76647 8.93294 8.11022 8.93294 8.47918C8.93294 8.70834 9.08877 9.03147 9.29731 9.03147C9.34311 9.03175 9.38795 9.01829 9.42603 8.99284C9.46411 8.96739 9.49369 8.93112 9.51096 8.88869C9.52822 8.84627 9.53238 8.79964 9.52289 8.75483C9.51341 8.71003 9.49071 8.66909 9.45773 8.6373C9.41771 8.5941 9.39586 8.53714 9.39672 8.47826C9.39757 8.41938 9.42106 8.36308 9.46231 8.32105ZM8.49294 7.3448C7.5419 8.28668 8.26377 9.68001 8.65335 9.68001C8.69868 9.67982 8.74293 9.66619 8.7805 9.64086C8.81808 9.61552 8.84731 9.57961 8.86448 9.53766C8.88165 9.49572 8.88599 9.44962 8.87697 9.40521C8.86794 9.36079 8.84595 9.32005 8.81377 9.28814C8.59966 9.07335 8.47943 8.78245 8.47943 8.47918C8.47943 8.1759 8.59966 7.885 8.81377 7.67022C8.85165 7.62665 8.87168 7.57039 8.86987 7.51269C8.86806 7.45498 8.84454 7.40009 8.80401 7.35898C8.76348 7.31787 8.70892 7.29357 8.65125 7.29094C8.59358 7.28831 8.53704 7.30755 8.49294 7.3448Z" fill="#833AB4"/>
<path d="M8.1675 7.02166C8.21066 6.9785 8.2349 6.91998 8.2349 6.85895C8.2349 6.79792 8.21066 6.73939 8.1675 6.69624C8.12435 6.65309 8.06582 6.62885 8.00479 6.62885C7.94377 6.62885 7.88524 6.65309 7.84209 6.69624C7.60788 6.93034 7.42209 7.20828 7.29533 7.5142C7.16857 7.82012 7.10333 8.14802 7.10333 8.47916C7.10333 8.8103 7.16857 9.13819 7.29533 9.44411C7.42209 9.75003 7.60788 10.028 7.84209 10.2621C7.88524 10.3052 7.94377 10.3295 8.00479 10.3295C8.06582 10.3295 8.12435 10.3052 8.1675 10.2621C8.21066 10.2189 8.2349 10.1604 8.2349 10.0994C8.2349 10.0383 8.21066 9.97981 8.1675 9.93666C7.78126 9.54994 7.56432 9.02572 7.56432 8.47916C7.56432 7.93259 7.78126 7.40838 8.1675 7.02166Z" fill="#833AB4"/>
</g>
<defs>
<clipPath id="clip0_1_2343">
<rect width="11" height="11" fill="white"/>
</clipPath>
</defs>
</svg>
