<svg width="25" height="25" viewBox="0 0 25 25" fill="none" xmlns="http://www.w3.org/2000/svg">
<path d="M12.9609 15.9453L15.7578 18.75L12.9531 21.5547L14.0625 22.6562L17.9688 18.75L14.0625 14.8438L12.9609 15.9453ZM18.4297 15.9453L21.2266 18.75L18.4219 21.5547L19.5312 22.6562L23.4375 18.75L19.5312 14.8438L18.4297 15.9453Z" fill="black"/>
<path d="M10.9375 17.9688H3.125V6.17969L12.0547 12.3594C12.1855 12.4501 12.3408 12.4987 12.5 12.4987C12.6592 12.4987 12.8145 12.4501 12.9453 12.3594L21.875 6.17969V13.2812H23.4375V5.46875C23.4375 5.05435 23.2729 4.65692 22.9799 4.3639C22.6868 4.07087 22.2894 3.90625 21.875 3.90625H3.125C2.7106 3.90625 2.31317 4.07087 2.02015 4.3639C1.72712 4.65692 1.5625 5.05435 1.5625 5.46875V17.9688C1.5625 18.3832 1.72712 18.7806 2.02015 19.0736C2.31317 19.3666 2.7106 19.5312 3.125 19.5312H10.9375V17.9688ZM20.1562 5.46875L12.5 10.7656L4.84375 5.46875H20.1562Z" fill="black"/>
</svg>
