<svg width="25" height="25" viewBox="0 0 25 25" fill="none" xmlns="http://www.w3.org/2000/svg">
<g clip-path="url(#clip0_1_3851)">
<path d="M12.5 2.60413C12.8884 2.60414 13.2629 2.74883 13.5504 3.00998C13.838 3.27112 14.0179 3.63 14.0552 4.01663L14.0625 4.16663V20.8333C14.0623 21.2346 13.9077 21.6204 13.6308 21.9108C13.3539 22.2012 12.9759 22.3739 12.5751 22.3932C12.1743 22.4125 11.7814 22.2768 11.4779 22.0144C11.1744 21.7519 10.9835 21.3827 10.9448 20.9833L10.9375 20.8333V4.16663C10.9375 3.75223 11.1021 3.3548 11.3952 3.06177C11.6882 2.76875 12.0856 2.60413 12.5 2.60413ZM8.33334 5.72913C8.74774 5.72913 9.14517 5.89375 9.43819 6.18677C9.73122 6.4798 9.89584 6.87722 9.89584 7.29163V17.7083C9.89584 18.1227 9.73122 18.5201 9.43819 18.8131C9.14517 19.1062 8.74774 19.2708 8.33334 19.2708C7.91894 19.2708 7.52151 19.1062 7.22848 18.8131C6.93546 18.5201 6.77084 18.1227 6.77084 17.7083V7.29163C6.77084 6.87722 6.93546 6.4798 7.22848 6.18677C7.52151 5.89375 7.91894 5.72913 8.33334 5.72913ZM16.6667 5.72913C17.0811 5.72913 17.4785 5.89375 17.7715 6.18677C18.0646 6.4798 18.2292 6.87722 18.2292 7.29163V17.7083C18.2292 18.1227 18.0646 18.5201 17.7715 18.8131C17.4785 19.1062 17.0811 19.2708 16.6667 19.2708C16.2523 19.2708 15.8548 19.1062 15.5618 18.8131C15.2688 18.5201 15.1042 18.1227 15.1042 17.7083V7.29163C15.1042 6.87722 15.2688 6.4798 15.5618 6.18677C15.8548 5.89375 16.2523 5.72913 16.6667 5.72913ZM4.16667 8.85413C4.58107 8.85413 4.9785 9.01875 5.27153 9.31177C5.56455 9.6048 5.72917 10.0022 5.72917 10.4166V14.5833C5.72917 14.9977 5.56455 15.3951 5.27153 15.6881C4.9785 15.9812 4.58107 16.1458 4.16667 16.1458C3.75227 16.1458 3.35484 15.9812 3.06182 15.6881C2.76879 15.3951 2.60417 14.9977 2.60417 14.5833V10.4166C2.60417 10.0022 2.76879 9.6048 3.06182 9.31177C3.35484 9.01875 3.75227 8.85413 4.16667 8.85413ZM20.8333 8.85413C21.2218 8.85414 21.5962 8.99883 21.8838 9.25998C22.1713 9.52112 22.3513 9.88 22.3885 10.2666L22.3958 10.4166V14.5833C22.3956 14.9846 22.2411 15.3704 21.9642 15.6608C21.6873 15.9512 21.3092 16.1239 20.9084 16.1432C20.5076 16.1625 20.1148 16.0268 19.8113 15.7644C19.5077 15.5019 19.3169 15.1327 19.2781 14.7333L19.2708 14.5833V10.4166C19.2708 10.0022 19.4355 9.6048 19.7285 9.31177C20.0215 9.01875 20.4189 8.85413 20.8333 8.85413Z" fill="black"/>
</g>
<defs>
<clipPath id="clip0_1_3851">
<rect width="25" height="25" fill="white"/>
</clipPath>
</defs>
</svg>
